<svg width="55" height="31" viewBox="0 0 55 31" fill="none" xmlns="http://www.w3.org/2000/svg">
<path d="M8 0.5H47C51.1421 0.5 54.5 3.85786 54.5 8V23C54.5 27.1421 51.1421 30.5 47 30.5H8C3.85786 30.5 0.5 27.1421 0.5 23V8C0.5 3.85786 3.85786 0.5 8 0.5Z" stroke="#4ca6ff"/>
<path d="M11.696 21V9.32H13.264V21H11.696ZM12.944 21V19.592H18.608V21H12.944ZM12.944 15.768V14.36H18.112V15.768H12.944ZM12.944 10.728V9.32H18.448V10.728H12.944ZM25.7538 21V18.44H25.4978V15.48C25.4978 14.8933 25.3431 14.4507 25.0338 14.152C24.7351 13.8533 24.2924 13.704 23.7058 13.704C23.3751 13.704 23.0338 13.7093 22.6818 13.72C22.3298 13.7307 21.9938 13.7413 21.6738 13.752C21.3538 13.7627 21.0764 13.7787 20.8418 13.8V12.456C21.0764 12.4347 21.3218 12.4187 21.5778 12.408C21.8444 12.3867 22.1164 12.376 22.3938 12.376C22.6711 12.3653 22.9378 12.36 23.1938 12.36C24.0684 12.36 24.7831 12.4667 25.3378 12.68C25.8924 12.8827 26.3031 13.2187 26.5698 13.688C26.8364 14.1573 26.9698 14.792 26.9698 15.592V21H25.7538ZM22.9538 21.224C22.3138 21.224 21.7591 21.1173 21.2898 20.904C20.8311 20.68 20.4738 20.36 20.2178 19.944C19.9724 19.528 19.8498 19.0267 19.8498 18.44C19.8498 17.832 19.9831 17.3253 20.2498 16.92C20.5271 16.5147 20.9271 16.2107 21.4498 16.008C21.9724 15.7947 22.6018 15.688 23.3378 15.688H25.6578V16.84H23.2738C22.6551 16.84 22.1804 16.9893 21.8498 17.288C21.5191 17.5867 21.3538 17.9707 21.3538 18.44C21.3538 18.9093 21.5191 19.288 21.8498 19.576C22.1804 19.864 22.6551 20.008 23.2738 20.008C23.6364 20.008 23.9831 19.944 24.3138 19.816C24.6444 19.6773 24.9164 19.4533 25.1298 19.144C25.3538 18.824 25.4764 18.3867 25.4978 17.832L25.9138 18.44C25.8604 19.048 25.7111 19.56 25.4658 19.976C25.2311 20.3813 24.9004 20.6907 24.4738 20.904C24.0578 21.1173 23.5511 21.224 22.9538 21.224ZM32.1089 21.256C30.9889 21.256 30.1195 21.016 29.5009 20.536C28.8929 20.056 28.5782 19.4 28.5569 18.568H29.9969C30.0182 18.8987 30.1835 19.2133 30.4929 19.512C30.8129 19.8 31.3515 19.944 32.1089 19.944C32.7915 19.944 33.3142 19.8107 33.6769 19.544C34.0395 19.2667 34.2209 18.9307 34.2209 18.536C34.2209 18.184 34.0875 17.912 33.8209 17.72C33.5542 17.5173 33.1222 17.384 32.5249 17.32L31.5969 17.224C30.7862 17.1387 30.1249 16.8987 29.6129 16.504C29.1009 16.0987 28.8449 15.5333 28.8449 14.808C28.8449 14.264 28.9835 13.8 29.2609 13.416C29.5382 13.0213 29.9222 12.7227 30.4129 12.52C30.9035 12.3067 31.4689 12.2 32.1089 12.2C33.0689 12.2 33.8475 12.4133 34.4449 12.84C35.0422 13.2667 35.3515 13.9013 35.3729 14.744H33.9329C33.9222 14.4027 33.7622 14.1147 33.4529 13.88C33.1542 13.6347 32.7062 13.512 32.1089 13.512C31.5115 13.512 31.0582 13.6347 30.7489 13.88C30.4395 14.1253 30.2849 14.4347 30.2849 14.808C30.2849 15.128 30.3915 15.384 30.6049 15.576C30.8289 15.768 31.1915 15.8907 31.6929 15.944L32.6209 16.04C33.5382 16.136 34.2742 16.392 34.8289 16.808C35.3835 17.2133 35.6609 17.7893 35.6609 18.536C35.6609 19.0693 35.5062 19.544 35.1969 19.96C34.8982 20.3653 34.4822 20.6853 33.9489 20.92C33.4155 21.144 32.8022 21.256 32.1089 21.256ZM36.7685 24.328V22.952H38.0005C38.3632 22.952 38.6672 22.904 38.9125 22.808C39.1685 22.7227 39.3765 22.5733 39.5365 22.36C39.7072 22.1467 39.8458 21.864 39.9525 21.512L42.6405 12.456H44.1445L41.2965 21.912C41.1258 22.4773 40.8858 22.936 40.5765 23.288C40.2672 23.6507 39.8885 23.912 39.4405 24.072C39.0032 24.2427 38.4912 24.328 37.9045 24.328H36.7685ZM39.3765 20.808V19.528H41.2325V20.808H39.3765ZM39.2165 20.808L36.1605 12.456H37.7285L40.6565 20.808H39.2165Z" fill="#4ca6ff"/>
</svg>
