<svg width="59" height="31" viewBox="0 0 59 31" fill="none" xmlns="http://www.w3.org/2000/svg">
<path d="M8 0.5H51C55.1421 0.5 58.5 3.85786 58.5 8V23C58.5 27.1421 55.1421 30.5 51 30.5H8C3.85786 30.5 0.5 27.1421 0.5 23V8C0.5 3.85786 3.85786 0.5 8 0.5Z" stroke="#949497"/>
<path d="M19.6 21V9.32H21.168V21H19.6ZM11.696 21V9.32H13.264V21H11.696ZM12.944 15.896V14.488H19.92V15.896H12.944ZM29.0194 21V18.44H28.7634V15.48C28.7634 14.8933 28.6087 14.4507 28.2994 14.152C28.0007 13.8533 27.558 13.704 26.9714 13.704C26.6407 13.704 26.2994 13.7093 25.9474 13.72C25.5954 13.7307 25.2594 13.7413 24.9394 13.752C24.6194 13.7627 24.342 13.7787 24.1074 13.8V12.456C24.342 12.4347 24.5874 12.4187 24.8434 12.408C25.11 12.3867 25.382 12.376 25.6594 12.376C25.9367 12.3653 26.2034 12.36 26.4594 12.36C27.334 12.36 28.0487 12.4667 28.6034 12.68C29.158 12.8827 29.5687 13.2187 29.8354 13.688C30.102 14.1573 30.2354 14.792 30.2354 15.592V21H29.0194ZM26.2194 21.224C25.5794 21.224 25.0247 21.1173 24.5554 20.904C24.0967 20.68 23.7394 20.36 23.4834 19.944C23.238 19.528 23.1154 19.0267 23.1154 18.44C23.1154 17.832 23.2487 17.3253 23.5154 16.92C23.7927 16.5147 24.1927 16.2107 24.7154 16.008C25.238 15.7947 25.8674 15.688 26.6034 15.688H28.9234V16.84H26.5394C25.9207 16.84 25.446 16.9893 25.1154 17.288C24.7847 17.5867 24.6194 17.9707 24.6194 18.44C24.6194 18.9093 24.7847 19.288 25.1154 19.576C25.446 19.864 25.9207 20.008 26.5394 20.008C26.902 20.008 27.2487 19.944 27.5794 19.816C27.91 19.6773 28.182 19.4533 28.3954 19.144C28.6194 18.824 28.742 18.3867 28.7634 17.832L29.1794 18.44C29.126 19.048 28.9767 19.56 28.7314 19.976C28.4967 20.3813 28.166 20.6907 27.7394 20.904C27.3234 21.1173 26.8167 21.224 26.2194 21.224ZM32.5745 21V12.456H33.7905V15.976H33.7265C33.7265 14.728 33.9985 13.816 34.5425 13.24C35.0972 12.6533 35.9238 12.36 37.0225 12.36H37.3105V13.736H36.7665C35.9132 13.736 35.2572 13.9653 34.7985 14.424C34.3398 14.872 34.1105 15.5227 34.1105 16.376V21H32.5745ZM42.1312 21.288C41.5232 21.288 40.9632 21.176 40.4512 20.952C39.9392 20.728 39.4912 20.4133 39.1072 20.008C38.7339 19.6027 38.4406 19.1333 38.2272 18.6C38.0246 18.0667 37.9232 17.4907 37.9232 16.872V16.584C37.9232 15.976 38.0246 15.4053 38.2272 14.872C38.4299 14.3387 38.7126 13.8693 39.0752 13.464C39.4486 13.0587 39.8859 12.744 40.3872 12.52C40.8992 12.2853 41.4646 12.168 42.0832 12.168C42.7339 12.168 43.3259 12.3067 43.8592 12.584C44.3926 12.8507 44.8299 13.272 45.1712 13.848C45.5126 14.424 45.7046 15.1707 45.7472 16.088L45.1073 15.064V9.32H46.6432V21H45.4272V17.208H45.8752C45.8326 18.1787 45.6299 18.968 45.2673 19.576C44.9046 20.1733 44.4459 20.6107 43.8912 20.888C43.3472 21.1547 42.7606 21.288 42.1312 21.288ZM42.3392 19.944C42.8619 19.944 43.3366 19.8267 43.7632 19.592C44.1899 19.3573 44.5312 19.0213 44.7873 18.584C45.0432 18.136 45.1712 17.6133 45.1712 17.016V16.28C45.1712 15.6933 45.0379 15.1973 44.7712 14.792C44.5152 14.376 44.1686 14.0613 43.7312 13.848C43.3046 13.624 42.8352 13.512 42.3232 13.512C41.7579 13.512 41.2566 13.6453 40.8192 13.912C40.3926 14.1787 40.0566 14.552 39.8112 15.032C39.5766 15.512 39.4592 16.0773 39.4592 16.728C39.4592 17.3787 39.5819 17.9493 39.8272 18.44C40.0726 18.92 40.4139 19.2933 40.8512 19.56C41.2886 19.816 41.7846 19.944 42.3392 19.944Z" fill="white"/>
</svg>
