<svg width="84" height="31" viewBox="0 0 84 31" fill="none" xmlns="http://www.w3.org/2000/svg">
<path d="M8 0.5H76C80.1421 0.5 83.5 3.85786 83.5 8V23C83.5 27.1421 80.1421 30.5 76 30.5H8C3.85786 30.5 0.5 27.1421 0.5 23V8C0.5 3.85786 3.85786 0.5 8 0.5Z" stroke="#949497"/>
<path d="M11.696 21V9.32H13.776L17.232 17.112H17.488L20.928 9.32H23.024V21H21.456V11.032L21.568 11.064L18.256 18.584H16.336L13.008 11.064L13.136 11.032V21H11.696ZM29.3428 21.288C28.5961 21.288 27.9508 21.16 27.4068 20.904C26.8628 20.648 26.4201 20.312 26.0788 19.896C25.7374 19.4693 25.4814 18.9947 25.3108 18.472C25.1508 17.9493 25.0708 17.416 25.0708 16.872V16.584C25.0708 16.0293 25.1508 15.4907 25.3108 14.968C25.4814 14.4453 25.7374 13.976 26.0788 13.56C26.4201 13.1333 26.8521 12.7973 27.3748 12.552C27.9081 12.296 28.5321 12.168 29.2468 12.168C30.1748 12.168 30.9374 12.3707 31.5348 12.776C32.1428 13.1707 32.5908 13.6827 32.8788 14.312C33.1774 14.9413 33.3268 15.6133 33.3268 16.328V17.016H25.7428V15.864H32.2068L31.8548 16.488C31.8548 15.88 31.7588 15.3573 31.5668 14.92C31.3748 14.472 31.0868 14.1253 30.7028 13.88C30.3188 13.6347 29.8334 13.512 29.2468 13.512C28.6388 13.512 28.1321 13.6507 27.7268 13.928C27.3321 14.2053 27.0334 14.584 26.8308 15.064C26.6388 15.544 26.5428 16.0987 26.5428 16.728C26.5428 17.336 26.6388 17.8853 26.8308 18.376C27.0334 18.856 27.3428 19.24 27.7588 19.528C28.1748 19.8053 28.7028 19.944 29.3428 19.944C30.0148 19.944 30.5588 19.7947 30.9748 19.496C31.4014 19.1973 31.6574 18.8507 31.7428 18.456H33.1828C33.0654 19.0427 32.8308 19.5493 32.4788 19.976C32.1268 20.4027 31.6841 20.728 31.1508 20.952C30.6174 21.176 30.0148 21.288 29.3428 21.288ZM38.5956 21.288C37.9876 21.288 37.4276 21.176 36.9156 20.952C36.4036 20.728 35.9556 20.4133 35.5716 20.008C35.1983 19.6027 34.905 19.1333 34.6916 18.6C34.489 18.0667 34.3876 17.4907 34.3876 16.872V16.584C34.3876 15.976 34.489 15.4053 34.6916 14.872C34.8943 14.3387 35.177 13.8693 35.5396 13.464C35.913 13.0587 36.3503 12.744 36.8516 12.52C37.3636 12.2853 37.929 12.168 38.5476 12.168C39.1983 12.168 39.7903 12.3067 40.3236 12.584C40.857 12.8507 41.2943 13.272 41.6356 13.848C41.977 14.424 42.169 15.1707 42.2116 16.088L41.5716 15.064V9.32H43.1076V21H41.8916V17.208H42.3396C42.297 18.1787 42.0943 18.968 41.7316 19.576C41.369 20.1733 40.9103 20.6107 40.3556 20.888C39.8116 21.1547 39.225 21.288 38.5956 21.288ZM38.8036 19.944C39.3263 19.944 39.801 19.8267 40.2276 19.592C40.6543 19.3573 40.9956 19.0213 41.2516 18.584C41.5076 18.136 41.6356 17.6133 41.6356 17.016V16.28C41.6356 15.6933 41.5023 15.1973 41.2356 14.792C40.9796 14.376 40.633 14.0613 40.1956 13.848C39.769 13.624 39.2996 13.512 38.7876 13.512C38.2223 13.512 37.721 13.6453 37.2836 13.912C36.857 14.1787 36.521 14.552 36.2756 15.032C36.041 15.512 35.9236 16.0773 35.9236 16.728C35.9236 17.3787 36.0463 17.9493 36.2916 18.44C36.537 18.92 36.8783 19.2933 37.3156 19.56C37.753 19.816 38.249 19.944 38.8036 19.944ZM45.9949 21V12.456H47.5309V21H45.9949ZM44.6829 13.672V12.456H47.5309V13.672H44.6829ZM46.4269 11.08C46.0855 11.08 45.8295 10.9893 45.6589 10.808C45.4989 10.6267 45.4189 10.3973 45.4189 10.12C45.4189 9.84267 45.4989 9.61333 45.6589 9.432C45.8295 9.25067 46.0855 9.16 46.4269 9.16C46.7682 9.16 47.0189 9.25067 47.1789 9.432C47.3495 9.61333 47.4349 9.84267 47.4349 10.12C47.4349 10.3973 47.3495 10.6267 47.1789 10.808C47.0189 10.9893 46.7682 11.08 46.4269 11.08ZM52.9808 21.256C51.9674 21.256 51.1888 20.9253 50.6448 20.264C50.1008 19.6027 49.8288 18.648 49.8288 17.4V12.44H51.3648V17.704C51.3648 18.376 51.5461 18.904 51.9088 19.288C52.2714 19.6613 52.7621 19.848 53.3808 19.848C54.0208 19.848 54.5434 19.6453 54.9488 19.24C55.3541 18.824 55.5568 18.2587 55.5568 17.544V12.44H57.0928V21H55.8768V17.336H56.0688C56.0688 18.1787 55.9568 18.8933 55.7328 19.48C55.5088 20.056 55.1728 20.4987 54.7248 20.808C54.2874 21.1067 53.7274 21.256 53.0448 21.256H52.9808ZM59.5876 21V12.456H60.8036V16.12H60.6116C60.6116 15.288 60.7183 14.584 60.9316 14.008C61.1556 13.4213 61.4863 12.9733 61.9236 12.664C62.361 12.3547 62.9156 12.2 63.5876 12.2H63.6516C64.3236 12.2 64.8783 12.3547 65.3156 12.664C65.7636 12.9733 66.0943 13.4213 66.3076 14.008C66.521 14.584 66.6276 15.288 66.6276 16.12H66.1796C66.1796 15.288 66.2916 14.584 66.5156 14.008C66.7396 13.4213 67.0703 12.9733 67.5076 12.664C67.9556 12.3547 68.5156 12.2 69.1876 12.2H69.2516C69.9236 12.2 70.4836 12.3547 70.9316 12.664C71.3796 12.9733 71.7103 13.4213 71.9236 14.008C72.1476 14.584 72.2596 15.288 72.2596 16.12V21H70.7236V15.784C70.7236 15.0907 70.553 14.5573 70.2116 14.184C69.8703 13.8 69.3956 13.608 68.7876 13.608C68.1583 13.608 67.6516 13.8107 67.2676 14.216C66.8836 14.6107 66.6916 15.1653 66.6916 15.88V21H65.1556V15.784C65.1556 15.0907 64.985 14.5573 64.6436 14.184C64.3023 13.8 63.8276 13.608 63.2196 13.608C62.5903 13.608 62.0836 13.8107 61.6996 14.216C61.3156 14.6107 61.1236 15.1653 61.1236 15.88V21H59.5876Z" fill="white"/>
</svg>
